<?xml version="1.0" encoding="UTF-8" standalone="no"?>
<!DOCTYPE svg PUBLIC "-//W3C//DTD SVG 1.1//EN"
 "http://www.w3.org/Graphics/SVG/1.1/DTD/svg11.dtd">
<!-- Generated by graphviz version 2.44.1 (20200629.0846)
 -->
<!-- Pages: 1 -->
<svg width="696pt" height="663pt"
 viewBox="0.00 0.00 695.98 662.95" xmlns="http://www.w3.org/2000/svg" xmlns:xlink="http://www.w3.org/1999/xlink">
<g id="graph0" class="graph" transform="scale(1 1) rotate(0) translate(4 658.95)">
<polygon fill="white" stroke="transparent" points="-4,4 -4,-658.95 691.98,-658.95 691.98,4 -4,4"/>
<text text-anchor="middle" x="343.99" y="-634.95" font-family="Times,serif" font-size="20.00">Relationship Between Concepts and Assignments</text>
<!-- large_text_files -->
<g id="node1" class="node">
<title>large_text_files</title>
<polygon fill="lightgrey" stroke="black" points="367,-286.95 299,-286.95 299,-218.95 367,-218.95 367,-286.95"/>
<text text-anchor="middle" x="333" y="-256.75" font-family="Times,serif" font-size="14.00">large text</text>
<text text-anchor="middle" x="333" y="-241.75" font-family="Times,serif" font-size="14.00">files</text>
</g>
<!-- nested_data -->
<g id="node2" class="node">
<title>nested_data</title>
<polygon fill="lightgrey" stroke="black" points="495,-447.45 418,-447.45 418,-370.45 495,-370.45 495,-447.45"/>
<text text-anchor="middle" x="456.5" y="-405.25" font-family="Times,serif" font-size="14.00">nested data</text>
</g>
<!-- large_text_files&#45;&gt;nested_data -->
<g id="edge20" class="edge">
<title>large_text_files&#45;&gt;nested_data</title>
<path fill="none" stroke="black" stroke-dasharray="5,2" d="M367.23,-284.37C372.37,-289.73 377.47,-295.37 382,-300.95 400.43,-323.62 401.56,-331.8 418,-355.95 419.29,-357.85 420.61,-359.77 421.95,-361.71"/>
<polygon fill="black" stroke="black" points="419.32,-364.06 427.89,-370.28 425.07,-360.07 419.32,-364.06"/>
</g>
<!-- sampling -->
<g id="node18" class="node">
<title>sampling</title>
<ellipse fill="none" stroke="blue" cx="609.49" cy="-326.95" rx="43.59" ry="18"/>
<text text-anchor="middle" x="609.49" y="-323.25" font-family="Times,serif" font-size="14.00" fill="blue">sampling</text>
</g>
<!-- large_text_files&#45;&gt;sampling -->
<g id="edge37" class="edge">
<title>large_text_files&#45;&gt;sampling</title>
<path fill="none" stroke="blue" d="M367.11,-261.88C419.01,-275.87 519.12,-302.86 572.65,-317.29"/>
</g>
<!-- visualization -->
<g id="node19" class="node">
<title>visualization</title>
<ellipse fill="none" stroke="blue" cx="609.49" cy="-211.95" rx="55.79" ry="18"/>
<text text-anchor="middle" x="609.49" y="-208.25" font-family="Times,serif" font-size="14.00" fill="blue">visualization</text>
</g>
<!-- large_text_files&#45;&gt;visualization -->
<g id="edge39" class="edge">
<title>large_text_files&#45;&gt;visualization</title>
<path fill="none" stroke="blue" d="M367.11,-248.01C414.73,-240.89 502.94,-227.72 558.52,-219.42"/>
</g>
<!-- grouped -->
<g id="node21" class="node">
<title>grouped</title>
<ellipse fill="none" stroke="blue" cx="609.49" cy="-265.95" rx="56.59" ry="18"/>
<text text-anchor="middle" x="609.49" y="-262.25" font-family="Times,serif" font-size="14.00" fill="blue">grouped data</text>
</g>
<!-- large_text_files&#45;&gt;grouped -->
<g id="edge30" class="edge">
<title>large_text_files&#45;&gt;grouped</title>
<path fill="none" stroke="blue" stroke-dasharray="5,2" d="M367.11,-254.52C413.31,-256.71 497.7,-260.71 553.44,-263.35"/>
</g>
<!-- estimation -->
<g id="node22" class="node">
<title>estimation</title>
<ellipse fill="none" stroke="blue" cx="609.49" cy="-117.95" rx="52.15" ry="26.74"/>
<text text-anchor="middle" x="609.49" y="-121.75" font-family="Times,serif" font-size="14.00" fill="blue">parameter</text>
<text text-anchor="middle" x="609.49" y="-106.75" font-family="Times,serif" font-size="14.00" fill="blue">estimation</text>
</g>
<!-- large_text_files&#45;&gt;estimation -->
<g id="edge31" class="edge">
<title>large_text_files&#45;&gt;estimation</title>
<path fill="none" stroke="blue" stroke-dasharray="5,2" d="M367.11,-236.67C418.44,-211.42 516.92,-162.99 570.87,-136.45"/>
</g>
<!-- online_algo -->
<g id="node25" class="node">
<title>online_algo</title>
<ellipse fill="none" stroke="blue" cx="609.49" cy="-392.95" rx="53.07" ry="26.74"/>
<text text-anchor="middle" x="609.49" y="-396.75" font-family="Times,serif" font-size="14.00" fill="blue">online</text>
<text text-anchor="middle" x="609.49" y="-381.75" font-family="Times,serif" font-size="14.00" fill="blue">algorithms</text>
</g>
<!-- large_text_files&#45;&gt;online_algo -->
<g id="edge38" class="edge">
<title>large_text_files&#45;&gt;online_algo</title>
<path fill="none" stroke="blue" d="M367.28,-272.14C382.62,-280.83 401.12,-291.12 418,-299.95 470.01,-327.17 531.15,-356.57 569.86,-374.87"/>
</g>
<!-- nested_data&#45;&gt;sampling -->
<g id="edge33" class="edge">
<title>nested_data&#45;&gt;sampling</title>
<path fill="none" stroke="blue" stroke-dasharray="5,2" d="M495.26,-379.57C506.41,-371.64 518.88,-363.46 531,-356.95 544.86,-349.52 560.96,-342.98 574.89,-337.91"/>
</g>
<!-- nested_data&#45;&gt;visualization -->
<g id="edge40" class="edge">
<title>nested_data&#45;&gt;visualization</title>
<path fill="none" stroke="blue" d="M464.77,-370.3C473.91,-331.99 493.2,-274.09 531,-238.95 539.56,-231 550.58,-225.37 561.62,-221.39"/>
</g>
<!-- ml -->
<g id="node20" class="node">
<title>ml</title>
<ellipse fill="none" stroke="blue" cx="609.49" cy="-539.95" rx="78.48" ry="26.74"/>
<text text-anchor="middle" x="609.49" y="-543.75" font-family="Times,serif" font-size="14.00" fill="blue">regression /</text>
<text text-anchor="middle" x="609.49" y="-528.75" font-family="Times,serif" font-size="14.00" fill="blue">machine learning</text>
</g>
<!-- nested_data&#45;&gt;ml -->
<g id="edge32" class="edge">
<title>nested_data&#45;&gt;ml</title>
<path fill="none" stroke="blue" stroke-dasharray="5,2" d="M481.6,-447.64C494.54,-466.13 511.77,-487.52 531,-502.95 538.91,-509.3 548.08,-514.88 557.29,-519.66"/>
</g>
<!-- nested_data&#45;&gt;grouped -->
<g id="edge41" class="edge">
<title>nested_data&#45;&gt;grouped</title>
<path fill="none" stroke="blue" d="M476.39,-370.33C489.19,-347.42 507.96,-319.19 531,-299.95 541.94,-290.82 555.72,-283.73 568.61,-278.44"/>
</g>
<!-- dim_reduce -->
<g id="node23" class="node">
<title>dim_reduce</title>
<ellipse fill="none" stroke="blue" cx="609.49" cy="-466.95" rx="52.15" ry="26.74"/>
<text text-anchor="middle" x="609.49" y="-470.75" font-family="Times,serif" font-size="14.00" fill="blue">dimension</text>
<text text-anchor="middle" x="609.49" y="-455.75" font-family="Times,serif" font-size="14.00" fill="blue">reduction</text>
</g>
<!-- nested_data&#45;&gt;dim_reduce -->
<g id="edge35" class="edge">
<title>nested_data&#45;&gt;dim_reduce</title>
<path fill="none" stroke="blue" stroke-dasharray="5,2" d="M495.21,-423.44C517.05,-431.83 544.57,-442.4 567.01,-451.02"/>
</g>
<!-- nested_data&#45;&gt;online_algo -->
<g id="edge34" class="edge">
<title>nested_data&#45;&gt;online_algo</title>
<path fill="none" stroke="blue" stroke-dasharray="5,2" d="M495.21,-404.96C513.99,-402.97 536.97,-400.53 557.32,-398.38"/>
</g>
<!-- database -->
<g id="node3" class="node">
<title>database</title>
<polygon fill="lightgrey" stroke="black" points="367,-106.95 299,-106.95 299,-38.95 367,-38.95 367,-106.95"/>
<text text-anchor="middle" x="333" y="-76.75" font-family="Times,serif" font-size="14.00">relational</text>
<text text-anchor="middle" x="333" y="-61.75" font-family="Times,serif" font-size="14.00">databases</text>
</g>
<!-- database&#45;&gt;grouped -->
<g id="edge46" class="edge">
<title>database&#45;&gt;grouped</title>
<path fill="none" stroke="blue" d="M366.67,-107.12C403.57,-144.03 466.88,-202.43 531,-238.95 541.89,-245.16 554.45,-250.29 566.25,-254.35"/>
</g>
<!-- database&#45;&gt;estimation -->
<g id="edge47" class="edge">
<title>database&#45;&gt;estimation</title>
<path fill="none" stroke="blue" d="M367.1,-55.04C400.63,-39.46 453.33,-22.09 495,-40.95 517.09,-50.95 511.59,-67.42 531,-81.95 541.69,-89.95 554.44,-96.78 566.48,-102.27"/>
</g>
<!-- images -->
<g id="node4" class="node">
<title>images</title>
<polygon fill="lightgrey" stroke="black" points="361,-568.95 305,-568.95 305,-512.95 361,-512.95 361,-568.95"/>
<text text-anchor="middle" x="333" y="-537.25" font-family="Times,serif" font-size="14.00">images</text>
</g>
<!-- images&#45;&gt;ml -->
<g id="edge44" class="edge">
<title>images&#45;&gt;ml</title>
<path fill="none" stroke="blue" d="M361.32,-540.85C400.51,-540.71 474.21,-540.44 530.97,-540.24"/>
</g>
<!-- images&#45;&gt;dim_reduce -->
<g id="edge45" class="edge">
<title>images&#45;&gt;dim_reduce</title>
<path fill="none" stroke="blue" d="M361.32,-533.59C408.38,-520.9 505.18,-494.8 562.69,-479.3"/>
</g>
<!-- simulation -->
<g id="node5" class="node">
<title>simulation</title>
<polygon fill="lightgrey" stroke="black" points="493.5,-123.95 419.5,-123.95 419.5,-49.95 493.5,-49.95 493.5,-123.95"/>
<text text-anchor="middle" x="456.5" y="-83.25" font-family="Times,serif" font-size="14.00" fill="blue">simulation</text>
</g>
<!-- simulation&#45;&gt;visualization -->
<g id="edge36" class="edge">
<title>simulation&#45;&gt;visualization</title>
<path fill="none" stroke="blue" stroke-dasharray="5,2" d="M493.52,-121.06C505.26,-131.83 518.49,-143.61 531,-153.95 548.74,-168.62 569.69,-184.2 585.33,-195.52"/>
</g>
<!-- simulation&#45;&gt;estimation -->
<g id="edge42" class="edge">
<title>simulation&#45;&gt;estimation</title>
<path fill="none" stroke="blue" d="M493.67,-94.38C513.73,-98.5 538.94,-103.67 560.62,-108.13"/>
</g>
<!-- conf_interval -->
<g id="node24" class="node">
<title>conf_interval</title>
<ellipse fill="none" stroke="blue" cx="609.49" cy="-45.95" rx="53.07" ry="26.74"/>
<text text-anchor="middle" x="609.49" y="-49.75" font-family="Times,serif" font-size="14.00" fill="blue">confidence</text>
<text text-anchor="middle" x="609.49" y="-34.75" font-family="Times,serif" font-size="14.00" fill="blue">intervals</text>
</g>
<!-- simulation&#45;&gt;conf_interval -->
<g id="edge43" class="edge">
<title>simulation&#45;&gt;conf_interval</title>
<path fill="none" stroke="blue" d="M493.67,-77.13C514.26,-71.54 540.26,-64.48 562.31,-58.49"/>
</g>
<!-- shell_basics -->
<g id="node6" class="node">
<title>shell_basics</title>
<text text-anchor="middle" x="54.5" y="-496.75" font-family="Times,serif" font-size="14.00">shell basics</text>
<text text-anchor="middle" x="54.5" y="-481.75" font-family="Times,serif" font-size="14.00">(bash)</text>
</g>
<!-- shell_advanced -->
<g id="node7" class="node">
<title>shell_advanced</title>
<text text-anchor="middle" x="196.5" y="-468.75" font-family="Times,serif" font-size="14.00">data processing</text>
<text text-anchor="middle" x="196.5" y="-453.75" font-family="Times,serif" font-size="14.00">pipelines (bash)</text>
</g>
<!-- shell_basics&#45;&gt;shell_advanced -->
<g id="edge3" class="edge">
<title>shell_basics&#45;&gt;shell_advanced</title>
<path fill="none" stroke="black" d="M94.13,-485.23C106.76,-482.7 121.12,-479.83 134.97,-477.06"/>
<polygon fill="black" stroke="black" points="135.81,-480.46 144.93,-475.07 134.44,-473.6 135.81,-480.46"/>
</g>
<!-- ssh -->
<g id="node8" class="node">
<title>ssh</title>
<text text-anchor="middle" x="196.5" y="-412.75" font-family="Times,serif" font-size="14.00">servers</text>
<text text-anchor="middle" x="196.5" y="-397.75" font-family="Times,serif" font-size="14.00">(SSH)</text>
</g>
<!-- shell_basics&#45;&gt;ssh -->
<g id="edge1" class="edge">
<title>shell_basics&#45;&gt;ssh</title>
<path fill="none" stroke="black" d="M85.09,-473.89C102.41,-462.87 124.79,-448.87 145,-436.95 149.8,-434.12 154.9,-431.2 159.95,-428.36"/>
<polygon fill="black" stroke="black" points="161.85,-431.3 168.88,-423.37 158.44,-425.19 161.85,-431.3"/>
</g>
<!-- git -->
<g id="node9" class="node">
<title>git</title>
<text text-anchor="middle" x="333" y="-609.75" font-family="Times,serif" font-size="14.00">version control</text>
<text text-anchor="middle" x="333" y="-594.75" font-family="Times,serif" font-size="14.00">(git)</text>
</g>
<!-- shell_basics&#45;&gt;git -->
<g id="edge2" class="edge">
<title>shell_basics&#45;&gt;git</title>
<path fill="none" stroke="black" d="M68.79,-512.29C84.39,-533.29 112.33,-565.96 145,-581.95 184.91,-601.48 235.07,-607.05 273.39,-607.97"/>
<polygon fill="black" stroke="black" points="273.82,-611.48 283.87,-608.11 273.91,-604.48 273.82,-611.48"/>
</g>
<!-- s3 -->
<g id="node14" class="node">
<title>s3</title>
<text text-anchor="middle" x="196.5" y="-524.75" font-family="Times,serif" font-size="14.00">object store</text>
<text text-anchor="middle" x="196.5" y="-509.75" font-family="Times,serif" font-size="14.00">(S3)</text>
</g>
<!-- shell_basics&#45;&gt;s3 -->
<g id="edge4" class="edge">
<title>shell_basics&#45;&gt;s3</title>
<path fill="none" stroke="black" d="M94.13,-500.68C110.23,-503.9 129.12,-507.68 146.21,-511.1"/>
<polygon fill="black" stroke="black" points="145.53,-514.53 156.03,-513.06 146.91,-507.67 145.53,-514.53"/>
</g>
<!-- shell_advanced&#45;&gt;large_text_files -->
<g id="edge5" class="edge">
<title>shell_advanced&#45;&gt;large_text_files</title>
<path fill="none" stroke="black" d="M238.68,-445.72C242.1,-443.09 245.29,-440.17 248,-436.95 279.25,-399.88 263.54,-377.92 284,-333.95 289.88,-321.32 297.17,-308.11 304.28,-296.12"/>
<polygon fill="black" stroke="black" points="307.48,-297.59 309.65,-287.22 301.48,-293.97 307.48,-297.59"/>
</g>
<!-- ssh&#45;&gt;large_text_files -->
<g id="edge11" class="edge">
<title>ssh&#45;&gt;large_text_files</title>
<path fill="none" stroke="black" d="M213.99,-389.82C234.3,-366.27 269.36,-325.6 296.01,-294.7"/>
<polygon fill="black" stroke="black" points="298.71,-296.93 302.59,-287.07 293.41,-292.36 298.71,-296.93"/>
</g>
<!-- ssh&#45;&gt;nested_data -->
<g id="edge12" class="edge">
<title>ssh&#45;&gt;nested_data</title>
<path fill="none" stroke="black" d="M224.25,-414.42C241.27,-417.62 263.83,-421.33 284,-422.95 327.42,-426.44 338.64,-427.05 382,-422.95 390.46,-422.16 399.39,-420.85 408.01,-419.35"/>
<polygon fill="black" stroke="black" points="408.73,-422.78 417.93,-417.52 407.46,-415.89 408.73,-422.78"/>
</g>
<!-- ssh&#45;&gt;database -->
<g id="edge14" class="edge">
<title>ssh&#45;&gt;database</title>
<path fill="none" stroke="black" d="M206.15,-389.77C217.06,-365.02 235.84,-320.45 248,-280.95 269.44,-211.29 248.84,-184.8 284,-120.95 286.33,-116.72 289.14,-112.62 292.22,-108.71"/>
<polygon fill="black" stroke="black" points="295.01,-110.84 298.86,-100.97 289.69,-106.28 295.01,-110.84"/>
</g>
<!-- ssh&#45;&gt;images -->
<g id="edge13" class="edge">
<title>ssh&#45;&gt;images</title>
<path fill="none" stroke="black" d="M224.17,-421.26C232.25,-425.62 240.86,-430.96 248,-436.95 271.22,-456.46 292.62,-483.15 308,-504.6"/>
<polygon fill="black" stroke="black" points="305.19,-506.68 313.81,-512.84 310.91,-502.65 305.19,-506.68"/>
</g>
<!-- ssh&#45;&gt;simulation -->
<g id="edge28" class="edge">
<title>ssh&#45;&gt;simulation</title>
<path fill="none" stroke="black" stroke-dasharray="5,2" d="M205.81,-389.66C216.36,-364.8 234.76,-320.11 248,-280.95 266.79,-225.38 244.5,-197.34 284,-153.95 315.45,-119.41 338.49,-132.97 382,-115.95 391.01,-112.43 400.63,-108.65 409.84,-105.02"/>
<polygon fill="black" stroke="black" points="411.24,-108.23 419.25,-101.3 408.67,-101.72 411.24,-108.23"/>
</g>
<!-- ssh&#45;&gt;git -->
<g id="edge29" class="edge">
<title>ssh&#45;&gt;git</title>
<path fill="none" stroke="black" stroke-dasharray="5,2" d="M224.08,-418.63C232.83,-423.01 241.88,-429.02 248,-436.95 287.51,-488.16 245.05,-526.32 284,-577.95 284.46,-578.56 284.93,-579.16 285.42,-579.74"/>
<polygon fill="black" stroke="black" points="282.98,-582.24 292.57,-586.75 287.88,-577.25 282.98,-582.24"/>
</g>
<!-- profiling -->
<g id="node10" class="node">
<title>profiling</title>
<text text-anchor="middle" x="196.5" y="-186.25" font-family="Times,serif" font-size="14.00">profiling</text>
</g>
<!-- parallel -->
<g id="node11" class="node">
<title>parallel</title>
<text text-anchor="middle" x="333" y="-185.75" font-family="Times,serif" font-size="14.00">parallel</text>
<text text-anchor="middle" x="333" y="-170.75" font-family="Times,serif" font-size="14.00">programming</text>
</g>
<!-- profiling&#45;&gt;parallel -->
<g id="edge23" class="edge">
<title>profiling&#45;&gt;parallel</title>
<path fill="none" stroke="black" stroke-dasharray="5,2" d="M228.02,-188.14C242.4,-187.28 260.01,-186.24 276.62,-185.25"/>
<polygon fill="black" stroke="black" points="277.02,-188.73 286.79,-184.64 276.6,-181.74 277.02,-188.73"/>
</g>
<!-- parallel&#45;&gt;nested_data -->
<g id="edge22" class="edge">
<title>parallel&#45;&gt;nested_data</title>
<path fill="none" stroke="black" stroke-dasharray="5,2" d="M372.62,-201.07C376.06,-203.74 379.27,-206.7 382,-209.95 418.5,-253.44 437.69,-316.7 447.19,-360.16"/>
<polygon fill="black" stroke="black" points="443.81,-361.14 449.29,-370.21 450.67,-359.71 443.81,-361.14"/>
</g>
<!-- parallel&#45;&gt;simulation -->
<g id="edge21" class="edge">
<title>parallel&#45;&gt;simulation</title>
<path fill="none" stroke="black" stroke-dasharray="5,2" d="M362.76,-162.86C369.18,-158.42 375.89,-153.61 382,-148.95 391.75,-141.52 401.95,-133.25 411.55,-125.23"/>
<polygon fill="black" stroke="black" points="414.05,-127.7 419.44,-118.58 409.54,-122.35 414.05,-127.7"/>
</g>
<!-- ec2 -->
<g id="node12" class="node">
<title>ec2</title>
<text text-anchor="middle" x="54.5" y="-412.75" font-family="Times,serif" font-size="14.00">cloud computing</text>
<text text-anchor="middle" x="54.5" y="-397.75" font-family="Times,serif" font-size="14.00">basics (EC2)</text>
</g>
<!-- ec2&#45;&gt;ssh -->
<g id="edge6" class="edge">
<title>ec2&#45;&gt;ssh</title>
<path fill="none" stroke="black" d="M109.23,-408.95C125.61,-408.95 143.25,-408.95 158.28,-408.95"/>
<polygon fill="black" stroke="black" points="158.71,-412.45 168.71,-408.95 158.71,-405.45 158.71,-412.45"/>
</g>
<!-- sql -->
<g id="node13" class="node">
<title>sql</title>
<text text-anchor="middle" x="196.5" y="-69.25" font-family="Times,serif" font-size="14.00">SQL</text>
</g>
<!-- sql&#45;&gt;database -->
<g id="edge7" class="edge">
<title>sql&#45;&gt;database</title>
<path fill="none" stroke="black" d="M223.75,-72.95C242.15,-72.95 267.16,-72.95 288.51,-72.95"/>
<polygon fill="black" stroke="black" points="288.65,-76.45 298.65,-72.95 288.65,-69.45 288.65,-76.45"/>
</g>
<!-- s3&#45;&gt;large_text_files -->
<g id="edge8" class="edge">
<title>s3&#45;&gt;large_text_files</title>
<path fill="none" stroke="black" d="M236.64,-503.89C240.93,-500.75 244.87,-497.12 248,-492.95 291.48,-434.99 257.21,-401.27 284,-333.95 289.11,-321.12 296.07,-307.94 303.11,-296.04"/>
<polygon fill="black" stroke="black" points="306.27,-297.57 308.47,-287.21 300.29,-293.94 306.27,-297.57"/>
</g>
<!-- s3&#45;&gt;nested_data -->
<g id="edge9" class="edge">
<title>s3&#45;&gt;nested_data</title>
<path fill="none" stroke="black" d="M236.68,-503.94C282.67,-483.98 358.9,-450.89 408.16,-429.51"/>
<polygon fill="black" stroke="black" points="409.85,-432.59 417.63,-425.39 407.06,-426.16 409.85,-432.59"/>
</g>
<!-- s3&#45;&gt;images -->
<g id="edge10" class="edge">
<title>s3&#45;&gt;images</title>
<path fill="none" stroke="black" d="M236.76,-526.79C255.13,-529.52 276.88,-532.76 294.96,-535.45"/>
<polygon fill="black" stroke="black" points="294.44,-538.91 304.85,-536.92 295.47,-531.98 294.44,-538.91"/>
</g>
<!-- programming -->
<g id="node15" class="node">
<title>programming</title>
<text text-anchor="middle" x="54.5" y="-335.25" font-family="Times,serif" font-size="14.00">programming</text>
<text text-anchor="middle" x="54.5" y="-320.25" font-family="Times,serif" font-size="14.00">(Julia, R</text>
<text text-anchor="middle" x="54.5" y="-305.25" font-family="Times,serif" font-size="14.00"> or Python)</text>
</g>
<!-- programming&#45;&gt;nested_data -->
<g id="edge15" class="edge">
<title>programming&#45;&gt;nested_data</title>
<path fill="none" stroke="black" d="M100.68,-337.45C161.96,-355.7 265.93,-386.37 284,-389.95 325.28,-398.14 372.89,-403.06 407.46,-405.84"/>
<polygon fill="black" stroke="black" points="407.51,-409.35 417.75,-406.63 408.05,-402.37 407.51,-409.35"/>
</g>
<!-- programming&#45;&gt;images -->
<g id="edge17" class="edge">
<title>programming&#45;&gt;images</title>
<path fill="none" stroke="black" d="M86.11,-350.54C94.67,-359.42 103.21,-369.89 109,-380.95 144.43,-448.6 85.62,-500.95 145,-548.95 187.14,-583.02 253.72,-569.31 295.03,-555.61"/>
<polygon fill="black" stroke="black" points="296.4,-558.84 304.7,-552.25 294.11,-552.23 296.4,-558.84"/>
</g>
<!-- programming&#45;&gt;simulation -->
<g id="edge18" class="edge">
<title>programming&#45;&gt;simulation</title>
<path fill="none" stroke="black" d="M55.25,-297.41C56.29,-241.1 67.38,-109.62 145,-45.95 226.63,21 282.12,4.24 382,-29.95 392.29,-33.48 402.26,-39.09 411.36,-45.46"/>
<polygon fill="black" stroke="black" points="409.34,-48.32 419.45,-51.47 413.52,-42.7 409.34,-48.32"/>
</g>
<!-- programming&#45;&gt;profiling -->
<g id="edge16" class="edge">
<title>programming&#45;&gt;profiling</title>
<path fill="none" stroke="black" d="M76.8,-297.19C94.05,-276.34 119.59,-247.28 145,-224.95 149.21,-221.26 153.81,-217.6 158.48,-214.13"/>
<polygon fill="black" stroke="black" points="160.78,-216.79 166.86,-208.11 156.7,-211.1 160.78,-216.79"/>
</g>
<!-- xml -->
<g id="node16" class="node">
<title>xml</title>
<text text-anchor="middle" x="333" y="-365.75" font-family="Times,serif" font-size="14.00">hierarchical</text>
<text text-anchor="middle" x="333" y="-350.75" font-family="Times,serif" font-size="14.00">data (XML)</text>
</g>
<!-- programming&#45;&gt;xml -->
<g id="edge24" class="edge">
<title>programming&#45;&gt;xml</title>
<path fill="none" stroke="black" stroke-dasharray="5,2" d="M100.69,-329.06C139.74,-333.59 197.68,-340.63 248,-347.95 258.87,-349.54 270.5,-351.38 281.53,-353.2"/>
<polygon fill="black" stroke="black" points="281.02,-356.66 291.46,-354.85 282.18,-349.76 281.02,-356.66"/>
</g>
<!-- xml&#45;&gt;nested_data -->
<g id="edge19" class="edge">
<title>xml&#45;&gt;nested_data</title>
<path fill="none" stroke="black" d="M374.8,-377.73C385.57,-381.9 397.28,-386.43 408.35,-390.72"/>
<polygon fill="black" stroke="black" points="407.3,-394.06 417.88,-394.4 409.82,-387.53 407.3,-394.06"/>
</g>
<!-- regex -->
<g id="node17" class="node">
<title>regex</title>
<text text-anchor="middle" x="196.5" y="-256.75" font-family="Times,serif" font-size="14.00">regular</text>
<text text-anchor="middle" x="196.5" y="-241.75" font-family="Times,serif" font-size="14.00">expressions</text>
</g>
<!-- regex&#45;&gt;large_text_files -->
<g id="edge26" class="edge">
<title>regex&#45;&gt;large_text_files</title>
<path fill="none" stroke="black" stroke-dasharray="5,2" d="M236.76,-252.95C253.07,-252.95 272.06,-252.95 288.76,-252.95"/>
<polygon fill="black" stroke="black" points="288.83,-256.45 298.83,-252.95 288.83,-249.45 288.83,-256.45"/>
</g>
<!-- regex&#45;&gt;nested_data -->
<g id="edge25" class="edge">
<title>regex&#45;&gt;nested_data</title>
<path fill="none" stroke="black" stroke-dasharray="5,2" d="M234.19,-272.12C249.45,-279.84 267.43,-288.64 284,-295.95 326.74,-314.82 342.99,-308.25 382,-333.95 394.24,-342.02 406.05,-352.43 416.49,-362.9"/>
<polygon fill="black" stroke="black" points="414.01,-365.38 423.48,-370.13 419.04,-360.51 414.01,-365.38"/>
</g>
<!-- regex&#45;&gt;database -->
<g id="edge27" class="edge">
<title>regex&#45;&gt;database</title>
<path fill="none" stroke="black" stroke-dasharray="5,2" d="M230.42,-233.82C236.88,-228.95 243.15,-223.27 248,-216.95 275.76,-180.82 259.33,-159.27 284,-120.95 286.43,-117.17 289.21,-113.45 292.17,-109.86"/>
<polygon fill="black" stroke="black" points="294.91,-112.04 298.89,-102.22 289.65,-107.42 294.91,-112.04"/>
</g>
</g>
</svg>
